<?xml version="1.0" encoding="UTF-8" standalone="no"?>
<!-- Created with Inkscape (http://www.inkscape.org/) -->

<svg
   width="320"
   height="64"
   viewBox="0 0 320 64.000003"
   version="1.1"
   id="svg1"
   xml:space="preserve"
   sodipodi:docname="bar.svg"
   inkscape:version="1.3 (0e150ed6c4, 2023-07-21)"
   xmlns:inkscape="http://www.inkscape.org/namespaces/inkscape"
   xmlns:sodipodi="http://sodipodi.sourceforge.net/DTD/sodipodi-0.dtd"
   xmlns="http://www.w3.org/2000/svg"
   xmlns:svg="http://www.w3.org/2000/svg"><sodipodi:namedview
     id="namedview1"
     pagecolor="#ffffff"
     bordercolor="#999999"
     borderopacity="1"
     inkscape:showpageshadow="2"
     inkscape:pageopacity="0"
     inkscape:pagecheckerboard="0"
     inkscape:deskcolor="#d1d1d1"
     inkscape:document-units="mm"
     showgrid="true"
     inkscape:lockguides="true"
     inkscape:zoom="11.313709"
     inkscape:cx="36.195028"
     inkscape:cy="36.63697"
     inkscape:window-width="1920"
     inkscape:window-height="991"
     inkscape:window-x="-9"
     inkscape:window-y="-9"
     inkscape:window-maximized="1"
     inkscape:current-layer="layer1"><inkscape:grid
       id="grid1"
       units="px"
       originx="0"
       originy="0"
       spacingx="1"
       spacingy="1"
       empcolor="#0099e5"
       empopacity="0.30196078"
       color="#0099e5"
       opacity="0.14901961"
       empspacing="4"
       dotted="false"
       gridanglex="30"
       gridanglez="30"
       visible="true"
       enabled="false" /></sodipodi:namedview><defs
     id="defs1"><inkscape:path-effect
       effect="fillet_chamfer"
       id="path-effect6"
       is_visible="true"
       lpeversion="1"
       nodesatellites_param="F,0,0,1,0,5.3517061,0,1 @ F,0,0,1,0,3.1085474,0,1 @ F,0,0,1,0,5.3511286,0,1 @ F,0,0,1,0,2.6540494,0,1"
       radius="0"
       unit="px"
       method="auto"
       mode="F"
       chamfer_steps="1"
       flexible="false"
       use_knot_distance="true"
       apply_no_radius="true"
       apply_with_radius="true"
       only_selected="false"
       hide_knots="false" /></defs><g
     inkscape:label="Capa 1"
     inkscape:groupmode="layer"
     id="layer1"><rect
       style="fill:#f8f2cd;fill-opacity:1"
       id="rect2"
       width="320"
       height="64"
       x="0.00390625"
       y="0.006599498"
       ry="15.988281" /><rect
       style="display:inline;fill:#6d3d1a;fill-opacity:1;stroke-width:0.762397"
       id="rect1"
       width="248.0004"
       height="48"
       x="63.999611"
       y="8.0002203"
       ry="11.991212" /><g
       style="display:none;fill:currentColor"
       id="g2"
       transform="matrix(2,0,0,2,8.0010996,7.9965238)"><path
         stroke="none"
         d="M 0,0 H 24 V 24 H 0 Z"
         fill="none"
         id="path1" /><path
         d="m 6.979,3.074 a 6,6 0 0 1 4.988,1.425 l 0.037,0.033 0.034,-0.03 a 6,6 0 0 1 4.733,-1.44 l 0.246,0.036 a 6,6 0 0 1 3.364,10.008 l -0.18,0.185 -0.048,0.041 -7.45,7.379 A 1,1 0 0 1 11.39,20.793 L 11.296,20.711 3.803,13.289 A 6,6 0 0 1 6.979,3.074 Z"
         id="path2"
         style="fill:#da2828;fill-opacity:1;stroke-width:0.999685;stroke-dasharray:none" /></g><path
       style="fill:#fea603;fill-opacity:1;fill-rule:evenodd;stroke:#fea603;stroke-width:2.14759;stroke-dasharray:none;stroke-opacity:1"
       d="M 26.345796,20.162632 C 30.412835,15.311197 33.432701,9.4931326 40.58694,9.624187 c 8.886668,0.162788 13.79507,3.58484 15.475377,9.494096 1.203525,4.232523 0.352471,8.748056 -1.234234,12.81703 -2.157036,5.531556 -4.134803,10.891323 -8.82951,14.525967 -4.578015,3.5443 -11.774508,7.914121 -17.564077,7.8801 -6.329368,-0.0372 -12.284323,-3.351729 -15.285496,-8.924452 -2.395134,-4.447399 -1.566418,-9.853552 0.569646,-14.431025 2.062917,-4.420721 9.493117,-7.084788 12.62715,-10.823271 z"
       id="path6"
       sodipodi:nodetypes="sssssssss" /></g></svg>
